<?xml version="1.0" standalone="no"?>
<!DOCTYPE svg PUBLIC "-//W3C//DTD SVG 20010904//EN"
 "http://www.w3.org/TR/2001/REC-SVG-20010904/DTD/svg10.dtd">
<svg version="1.0" xmlns="http://www.w3.org/2000/svg"
 width="1280.000000pt" height="1280.000000pt" viewBox="0 0 1280.000000 1280.000000"
 preserveAspectRatio="xMidYMid meet">

<g transform="translate(0.000000,1280.000000) scale(0.100000,-0.100000)"
fill="#000000" stroke="none">
<path d="M0 6400 l0 -6400 6400 0 6400 0 0 6400 0 6400 -6400 0 -6400 0 0
-6400z m7865 4082 c315 -25 354 -31 431 -67 87 -40 187 -113 311 -226 332
-305 540 -680 599 -1081 22 -152 15 -430 -15 -570 -49 -226 -170 -491 -313
-683 -145 -196 -349 -388 -560 -529 -49 -32 -88 -63 -88 -68 0 -16 43 -77 608
-863 907 -1260 963 -1337 1078 -1480 225 -282 417 -470 600 -587 169 -108 455
-204 739 -246 l120 -18 3 -87 3 -87 -889 0 -888 0 -190 262 c-105 145 -428
592 -719 993 -543 751 -632 874 -696 960 -31 43 -143 197 -543 752 l-81 112
-347 0 -348 -1 0 -1026 c0 -568 5 -1088 10 -1162 29 -398 94 -530 315 -640
107 -53 161 -62 400 -69 l220 -6 3 -87 3 -88 -1416 0 -1415 0 0 89 0 89 218 5
c236 5 287 13 396 67 126 63 224 164 265 276 64 170 72 360 69 1549 l-3 1000
-1007 3 -1008 2 0 -117 c-1 -170 -17 -407 -35 -488 -33 -155 -147 -311 -273
-372 -51 -25 -68 -27 -163 -28 l-106 0 -104 52 c-137 69 -257 160 -409 313
-155 154 -272 309 -349 461 -135 266 -119 415 67 598 66 65 105 95 162 123
103 49 247 94 406 125 l134 27 0 1228 0 1228 -715 0 -715 0 -79 158 -79 157
26 33 25 33 3096 -4 c2248 -3 3137 -7 3246 -15z m-4760 -7694 c225 -540 219
-528 280 -548 67 -22 35 -30 -121 -30 -120 0 -155 3 -152 13 3 6 17 13 31 15
32 4 51 34 41 65 -3 12 -20 55 -36 95 l-30 72 -147 0 -148 0 -38 -95 c-37 -91
-38 -95 -21 -114 10 -11 30 -21 44 -23 14 -2 27 -9 30 -15 3 -10 -25 -13 -117
-13 -92 0 -121 3 -121 13 0 7 15 17 32 22 43 13 50 26 220 423 79 182 147 332
153 332 6 0 51 -96 100 -212z m1659 44 c226 -546 247 -586 298 -594 12 -2 23
-9 26 -15 3 -10 -31 -13 -148 -13 -114 0 -151 3 -148 12 3 7 19 16 36 20 46
12 46 36 0 151 l-30 77 -148 0 -147 0 -37 -87 c-49 -119 -48 -129 17 -142 17
-4 32 -12 35 -19 3 -9 -28 -12 -123 -12 -94 0 -126 3 -123 12 3 7 19 16 36 20
43 11 55 35 222 426 78 182 147 332 154 332 6 0 42 -76 80 -168z m738 148 c80
-25 99 -25 105 0 3 11 12 20 19 20 11 0 14 -27 14 -136 0 -98 -3 -135 -12
-132 -6 2 -16 24 -22 49 -19 74 -51 115 -112 145 -74 36 -142 31 -187 -15 -27
-26 -32 -39 -32 -77 0 -41 4 -50 40 -81 22 -19 87 -61 145 -93 176 -99 216
-139 227 -229 10 -88 -36 -169 -121 -213 -57 -30 -167 -30 -260 0 -70 23 -96
19 -96 -14 0 -8 -7 -14 -15 -14 -13 0 -15 22 -15 135 0 153 13 176 42 77 22
-75 50 -109 112 -138 177 -82 335 74 200 197 -16 14 -83 58 -150 97 -165 97
-204 143 -204 243 0 58 15 91 63 137 65 63 149 76 259 42z m1827 -183 c228
-549 228 -548 292 -561 17 -3 28 -10 24 -16 -9 -15 -308 -13 -303 2 3 7 19 16
36 20 46 12 46 35 0 151 l-30 77 -148 0 -147 0 -38 -89 c-20 -49 -35 -97 -33
-107 2 -12 19 -24 46 -32 23 -8 42 -18 42 -23 0 -5 -97 -9 -224 -9 l-225 0
-131 180 -131 180 -41 0 -40 0 4 -148 c3 -167 7 -177 69 -187 85 -15 32 -25
-126 -25 -159 0 -211 10 -125 25 70 12 70 10 70 363 l0 313 -25 24 c-15 16
-36 25 -55 25 -16 0 -30 5 -30 10 0 13 381 13 440 -1 100 -23 160 -93 160
-189 0 -28 -7 -64 -14 -79 -22 -41 -80 -88 -126 -102 -22 -7 -40 -14 -40 -17
0 -6 143 -204 188 -260 53 -67 134 -99 199 -78 33 11 57 57 201 396 160 376
153 360 166 360 6 0 49 -91 95 -203z m2271 187 c126 -37 221 -140 256 -275 38
-146 -4 -310 -104 -407 -187 -182 -483 -130 -599 105 -26 55 -28 66 -28 188 0
121 2 134 27 185 83 169 274 256 448 204z m-7777 -61 c24 -55 138 -301 214
-463 34 -73 35 -74 47 -50 7 14 69 148 137 298 l123 272 113 0 c69 0 113 -4
113 -10 0 -5 -12 -10 -26 -10 -28 0 -65 -16 -76 -34 -4 -6 -8 -155 -8 -332 0
-359 -3 -345 73 -359 80 -15 30 -25 -128 -25 -91 0 -165 4 -165 8 0 4 20 13
44 20 40 10 46 16 55 49 12 43 15 560 4 549 -5 -4 -71 -145 -149 -314 -77
-169 -146 -307 -153 -307 -7 0 -77 139 -154 308 l-142 309 -5 -244 c-5 -259
-1 -325 21 -339 8 -5 31 -12 51 -15 75 -13 24 -24 -108 -24 -128 0 -174 11
-98 23 76 13 74 2 74 356 0 357 0 356 -71 367 -75 12 -38 24 75 24 l113 0 26
-57z m1893 -56 c51 -61 155 -190 233 -286 l141 -173 0 251 0 252 -25 24 c-15
16 -36 25 -55 25 -16 0 -30 5 -30 10 0 6 52 10 135 10 131 0 176 -11 96 -24
-67 -10 -66 0 -69 -398 -2 -269 -6 -358 -15 -358 -7 1 -124 139 -262 308
l-250 307 -3 -210 c-3 -235 3 -328 24 -349 7 -8 32 -17 54 -21 81 -14 36 -25
-100 -25 -134 0 -181 11 -104 23 76 13 74 3 74 347 l0 306 -27 27 c-16 14 -49
32 -75 38 -27 7 -48 17 -48 21 0 4 48 8 108 8 l107 -1 91 -112z m4487 46 c10
-100 9 -113 -8 -113 -8 0 -15 9 -15 20 0 37 -30 81 -65 96 -19 8 -66 14 -105
14 l-70 0 0 -323 c0 -364 0 -362 71 -373 85 -14 31 -24 -126 -24 -91 0 -165 3
-165 8 0 4 21 14 47 22 36 11 49 21 54 40 4 14 7 166 8 338 l1 312 -74 0 c-41
0 -86 -4 -100 -10 -30 -11 -66 -65 -66 -97 0 -15 -6 -23 -16 -23 -15 0 -16 9
-11 68 4 37 7 77 7 90 l0 22 314 0 313 0 6 -67z m387 57 c0 -5 -12 -10 -26
-10 -28 0 -65 -16 -76 -34 -4 -6 -8 -75 -8 -153 l0 -143 175 0 175 0 0 143 c0
162 -4 172 -74 184 -82 13 -26 23 129 23 91 0 165 -4 165 -8 0 -5 -19 -12 -42
-18 -67 -14 -68 -18 -67 -354 1 -162 4 -306 8 -320 5 -19 18 -29 54 -40 26 -8
47 -18 47 -22 0 -5 -74 -8 -165 -8 -157 0 -211 10 -126 24 65 10 71 28 71 198
l0 148 -175 0 -175 0 0 -153 c0 -173 2 -179 73 -192 81 -15 29 -25 -133 -25
-161 0 -217 10 -131 24 22 3 46 12 54 20 19 20 28 157 26 394 -2 259 -5 279
-40 297 -15 8 -39 15 -54 15 -14 0 -25 5 -25 10 0 6 63 10 170 10 107 0 170
-4 170 -10z m1843 -23 c99 -58 129 -165 74 -259 -25 -43 -104 -98 -141 -98 -9
0 -16 -3 -15 -7 0 -5 48 -73 107 -152 107 -145 142 -177 205 -190 17 -4 32
-12 35 -19 3 -9 -23 -12 -100 -12 l-105 0 -129 179 -129 180 -44 0 -43 1 4
-142 c3 -79 8 -151 13 -161 4 -10 27 -23 51 -29 24 -7 44 -16 44 -20 0 -4 -74
-8 -165 -8 -155 0 -211 10 -129 23 76 13 74 1 74 361 0 177 -4 326 -8 332 -11
18 -48 34 -76 34 -14 0 -26 5 -26 11 0 8 67 10 228 7 l227 -3 48 -28z m877
-52 c0 -84 -13 -113 -26 -57 -12 51 -33 80 -65 91 -18 6 -90 11 -160 11 l-129
0 0 -150 0 -150 120 0 c136 0 153 8 166 74 13 74 24 31 24 -99 0 -131 -11
-176 -26 -100 -11 63 -40 75 -170 75 l-114 0 0 -148 c0 -188 -1 -186 112 -190
46 -2 110 1 143 7 53 9 65 16 103 58 23 26 45 56 48 65 3 10 12 18 21 18 8 0
13 -6 11 -12 -3 -7 -17 -50 -33 -95 l-28 -83 -299 0 c-173 0 -298 4 -298 9 0
5 18 12 40 16 70 12 70 10 70 365 0 242 -3 320 -13 334 -7 9 -32 20 -55 23
-23 3 -42 10 -42 14 0 5 135 9 300 9 l300 0 0 -85z"/>
<path d="M3705 10108 c-3 -7 -4 -569 -3 -1248 l3 -1235 1020 0 1020 0 0 1245
0 1245 -1018 3 c-809 2 -1019 0 -1022 -10z"/>
<path d="M6680 8865 l0 -1258 123 7 c394 21 797 147 1087 342 304 203 498 461
554 736 20 98 20 265 1 360 -75 359 -406 707 -849 893 -270 113 -492 164 -743
172 l-173 6 0 -1258z"/>
<path d="M2961 2789 c-5 -13 -32 -77 -60 -142 -28 -65 -51 -123 -51 -128 0 -5
56 -9 125 -9 69 0 125 2 125 4 0 6 -120 290 -125 294 -2 3 -9 -6 -14 -19z"/>
<path d="M4636 2779 c-8 -19 -37 -86 -65 -149 l-50 -115 126 -3 c69 -1 127 -1
129 1 3 3 -114 287 -122 296 -2 2 -10 -11 -18 -30z"/>
<path d="M6315 2931 l-30 -6 -3 -159 -3 -159 70 5 c115 9 181 67 181 162 0
115 -93 183 -215 157z"/>
<path d="M7186 2779 c-8 -19 -37 -86 -65 -149 l-50 -115 126 -3 c69 -1 127 -1
129 1 3 3 -114 287 -122 296 -2 2 -10 -11 -18 -30z"/>
<path d="M9441 2949 c-64 -12 -110 -53 -151 -134 l-35 -70 1 -145 c0 -159 9
-194 63 -274 40 -57 98 -86 175 -86 73 0 115 20 166 78 66 74 92 213 71 366
-28 198 -133 294 -290 265z"/>
<path d="M10185 2932 l-30 -7 -3 -159 -3 -159 70 5 c120 9 181 65 181 166 0
63 -23 108 -68 135 -35 20 -103 29 -147 19z"/>
</g>
</svg>
